<svg width="172" height="27" viewBox="0 0 172 27" fill="none" xmlns="http://www.w3.org/2000/svg">
<path d="M10.288 26.272C8.316 26.272 6.55933 25.8753 5.018 25.082C3.47667 24.266 2.264 23.144 1.38 21.716C0.518667 20.288 0.0880001 18.6673 0.0880001 16.854C0.0880001 15.018 0.518667 13.3973 1.38 11.992C2.264 10.564 3.47667 9.45333 5.018 8.66C6.55933 7.844 8.316 7.436 10.288 7.436C12.2147 7.436 13.892 7.844 15.32 8.66C16.748 9.45333 17.802 10.598 18.482 12.094L14.368 14.304C13.892 13.4427 13.2913 12.808 12.566 12.4C11.8633 11.992 11.0927 11.788 10.254 11.788C9.34733 11.788 8.53133 11.992 7.806 12.4C7.08067 12.808 6.50267 13.386 6.072 14.134C5.664 14.882 5.46 15.7887 5.46 16.854C5.46 17.9193 5.664 18.826 6.072 19.574C6.50267 20.322 7.08067 20.9 7.806 21.308C8.53133 21.716 9.34733 21.92 10.254 21.92C11.0927 21.92 11.8633 21.7273 12.566 21.342C13.2913 20.934 13.892 20.288 14.368 19.404L18.482 21.648C17.802 23.1213 16.748 24.266 15.32 25.082C13.892 25.8753 12.2147 26.272 10.288 26.272ZM30.3815 26.272C28.2961 26.272 26.4601 25.864 24.8735 25.048C23.3095 24.232 22.0968 23.1213 21.2355 21.716C20.3741 20.288 19.9435 18.6673 19.9435 16.854C19.9435 15.018 20.3628 13.3973 21.2015 11.992C22.0628 10.564 23.2301 9.45333 24.7035 8.66C26.1768 7.844 27.8428 7.436 29.7015 7.436C31.4921 7.436 33.1015 7.82133 34.5295 8.592C35.9801 9.34 37.1248 10.428 37.9635 11.856C38.8021 13.2613 39.2215 14.95 39.2215 16.922C39.2215 17.126 39.2101 17.364 39.1875 17.636C39.1648 17.8853 39.1421 18.1233 39.1195 18.35H24.2615V15.256H36.3315L34.2915 16.174C34.2915 15.222 34.0988 14.3947 33.7135 13.692C33.3281 12.9893 32.7955 12.4453 32.1155 12.06C31.4355 11.652 30.6421 11.448 29.7355 11.448C28.8288 11.448 28.0241 11.652 27.3215 12.06C26.6415 12.4453 26.1088 13.0007 25.7235 13.726C25.3381 14.4287 25.1455 15.2673 25.1455 16.242V17.058C25.1455 18.0553 25.3608 18.9393 25.7915 19.71C26.2448 20.458 26.8681 21.036 27.6615 21.444C28.4775 21.8293 29.4295 22.022 30.5175 22.022C31.4921 22.022 32.3421 21.8747 33.0675 21.58C33.8155 21.2853 34.4955 20.8433 35.1075 20.254L37.9295 23.314C37.0908 24.266 36.0368 25.0027 34.7675 25.524C33.4981 26.0227 32.0361 26.272 30.3815 26.272ZM51.8307 26.272C49.7454 26.272 47.9094 25.864 46.3227 25.048C44.7587 24.232 43.546 23.1213 42.6847 21.716C41.8234 20.288 41.3927 18.6673 41.3927 16.854C41.3927 15.018 41.812 13.3973 42.6507 11.992C43.512 10.564 44.6794 9.45333 46.1527 8.66C47.626 7.844 49.292 7.436 51.1507 7.436C52.9414 7.436 54.5507 7.82133 55.9787 8.592C57.4294 9.34 58.574 10.428 59.4127 11.856C60.2514 13.2613 60.6707 14.95 60.6707 16.922C60.6707 17.126 60.6594 17.364 60.6367 17.636C60.614 17.8853 60.5914 18.1233 60.5687 18.35H45.7107V15.256H57.7807L55.7407 16.174C55.7407 15.222 55.548 14.3947 55.1627 13.692C54.7774 12.9893 54.2447 12.4453 53.5647 12.06C52.8847 11.652 52.0914 11.448 51.1847 11.448C50.278 11.448 49.4734 11.652 48.7707 12.06C48.0907 12.4453 47.558 13.0007 47.1727 13.726C46.7874 14.4287 46.5947 15.2673 46.5947 16.242V17.058C46.5947 18.0553 46.81 18.9393 47.2407 19.71C47.694 20.458 48.3174 21.036 49.1107 21.444C49.9267 21.8293 50.8787 22.022 51.9667 22.022C52.9414 22.022 53.7914 21.8747 54.5167 21.58C55.2647 21.2853 55.9447 20.8433 56.5567 20.254L59.3787 23.314C58.54 24.266 57.486 25.0027 56.2167 25.524C54.9474 26.0227 53.4854 26.272 51.8307 26.272ZM72.0559 26.272C70.3332 26.272 68.7806 25.8867 67.3979 25.116C66.0152 24.3227 64.9159 23.2233 64.0999 21.818C63.3066 20.4127 62.9099 18.758 62.9099 16.854C62.9099 14.9273 63.3066 13.2613 64.0999 11.856C64.9159 10.4507 66.0152 9.36267 67.3979 8.592C68.7806 7.82133 70.3332 7.436 72.0559 7.436C73.5972 7.436 74.9459 7.776 76.1019 8.456C77.2579 9.136 78.1532 10.1673 78.7879 11.55C79.4226 12.9327 79.7399 14.7007 79.7399 16.854C79.7399 18.9847 79.4339 20.7527 78.8219 22.158C78.2099 23.5407 77.3259 24.572 76.1699 25.252C75.0366 25.932 73.6652 26.272 72.0559 26.272ZM72.9739 21.92C73.8352 21.92 74.6172 21.716 75.3199 21.308C76.0226 20.9 76.5779 20.322 76.9859 19.574C77.4166 18.8033 77.6319 17.8967 77.6319 16.854C77.6319 15.7887 77.4166 14.882 76.9859 14.134C76.5779 13.386 76.0226 12.808 75.3199 12.4C74.6172 11.992 73.8352 11.788 72.9739 11.788C72.0899 11.788 71.2966 11.992 70.5939 12.4C69.8912 12.808 69.3246 13.386 68.8939 14.134C68.4859 14.882 68.2819 15.7887 68.2819 16.854C68.2819 17.8967 68.4859 18.8033 68.8939 19.574C69.3246 20.322 69.8912 20.9 70.5939 21.308C71.2966 21.716 72.0899 21.92 72.9739 21.92ZM77.7679 26V22.26L77.8699 16.82L77.5299 11.414V0.771999H82.8339V26H77.7679ZM96.5829 26.272C94.6109 26.272 92.8543 25.8753 91.3129 25.082C89.7716 24.266 88.5589 23.144 87.6749 21.716C86.8136 20.288 86.3829 18.6673 86.3829 16.854C86.3829 15.018 86.8136 13.3973 87.6749 11.992C88.5589 10.564 89.7716 9.45333 91.3129 8.66C92.8543 7.844 94.6109 7.436 96.5829 7.436C98.5096 7.436 100.187 7.844 101.615 8.66C103.043 9.45333 104.097 10.598 104.777 12.094L100.663 14.304C100.187 13.4427 99.5863 12.808 98.8609 12.4C98.1583 11.992 97.3876 11.788 96.5489 11.788C95.6423 11.788 94.8263 11.992 94.1009 12.4C93.3756 12.808 92.7976 13.386 92.3669 14.134C91.9589 14.882 91.7549 15.7887 91.7549 16.854C91.7549 17.9193 91.9589 18.826 92.3669 19.574C92.7976 20.322 93.3756 20.9 94.1009 21.308C94.8263 21.716 95.6423 21.92 96.5489 21.92C97.3876 21.92 98.1583 21.7273 98.8609 21.342C99.5863 20.934 100.187 20.288 100.663 19.404L104.777 21.648C104.097 23.1213 103.043 24.266 101.615 25.082C100.187 25.8753 98.5096 26.272 96.5829 26.272ZM116.302 26.272C114.353 26.272 112.619 25.864 111.1 25.048C109.604 24.232 108.414 23.1213 107.53 21.716C106.669 20.288 106.238 18.6673 106.238 16.854C106.238 15.018 106.669 13.3973 107.53 11.992C108.414 10.564 109.604 9.45333 111.1 8.66C112.619 7.844 114.353 7.436 116.302 7.436C118.229 7.436 119.952 7.844 121.47 8.66C122.989 9.45333 124.179 10.5527 125.04 11.958C125.902 13.3633 126.332 14.9953 126.332 16.854C126.332 18.6673 125.902 20.288 125.04 21.716C124.179 23.1213 122.989 24.232 121.47 25.048C119.952 25.864 118.229 26.272 116.302 26.272ZM116.302 21.92C117.186 21.92 117.98 21.716 118.682 21.308C119.385 20.9 119.94 20.322 120.348 19.574C120.756 18.8033 120.96 17.8967 120.96 16.854C120.96 15.7887 120.756 14.882 120.348 14.134C119.94 13.386 119.385 12.808 118.682 12.4C117.98 11.992 117.186 11.788 116.302 11.788C115.418 11.788 114.625 11.992 113.922 12.4C113.22 12.808 112.653 13.386 112.222 14.134C111.814 14.882 111.61 15.7887 111.61 16.854C111.61 17.8967 111.814 18.8033 112.222 19.574C112.653 20.322 113.22 20.9 113.922 21.308C114.625 21.716 115.418 21.92 116.302 21.92ZM137.732 26.272C136.009 26.272 134.456 25.8867 133.074 25.116C131.691 24.3227 130.592 23.2233 129.776 21.818C128.982 20.4127 128.586 18.758 128.586 16.854C128.586 14.9273 128.982 13.2613 129.776 11.856C130.592 10.4507 131.691 9.36267 133.074 8.592C134.456 7.82133 136.009 7.436 137.732 7.436C139.273 7.436 140.622 7.776 141.778 8.456C142.934 9.136 143.829 10.1673 144.464 11.55C145.098 12.9327 145.416 14.7007 145.416 16.854C145.416 18.9847 145.11 20.7527 144.498 22.158C143.886 23.5407 143.002 24.572 141.846 25.252C140.712 25.932 139.341 26.272 137.732 26.272ZM138.65 21.92C139.511 21.92 140.293 21.716 140.996 21.308C141.698 20.9 142.254 20.322 142.662 19.574C143.092 18.8033 143.308 17.8967 143.308 16.854C143.308 15.7887 143.092 14.882 142.662 14.134C142.254 13.386 141.698 12.808 140.996 12.4C140.293 11.992 139.511 11.788 138.65 11.788C137.766 11.788 136.972 11.992 136.27 12.4C135.567 12.808 135 13.386 134.57 14.134C134.162 14.882 133.958 15.7887 133.958 16.854C133.958 17.8967 134.162 18.8033 134.57 19.574C135 20.322 135.567 20.9 136.27 21.308C136.972 21.716 137.766 21.92 138.65 21.92ZM143.444 26V22.26L143.546 16.82L143.206 11.414V0.771999H148.51V26H143.444ZM162.497 26.272C160.411 26.272 158.575 25.864 156.989 25.048C155.425 24.232 154.212 23.1213 153.351 21.716C152.489 20.288 152.059 18.6673 152.059 16.854C152.059 15.018 152.478 13.3973 153.317 11.992C154.178 10.564 155.345 9.45333 156.819 8.66C158.292 7.844 159.958 7.436 161.817 7.436C163.607 7.436 165.217 7.82133 166.645 8.592C168.095 9.34 169.24 10.428 170.079 11.856C170.917 13.2613 171.337 14.95 171.337 16.922C171.337 17.126 171.325 17.364 171.303 17.636C171.28 17.8853 171.257 18.1233 171.235 18.35H156.377V15.256H168.447L166.407 16.174C166.407 15.222 166.214 14.3947 165.829 13.692C165.443 12.9893 164.911 12.4453 164.231 12.06C163.551 11.652 162.757 11.448 161.851 11.448C160.944 11.448 160.139 11.652 159.437 12.06C158.757 12.4453 158.224 13.0007 157.839 13.726C157.453 14.4287 157.261 15.2673 157.261 16.242V17.058C157.261 18.0553 157.476 18.9393 157.907 19.71C158.36 20.458 158.983 21.036 159.777 21.444C160.593 21.8293 161.545 22.022 162.633 22.022C163.607 22.022 164.457 21.8747 165.183 21.58C165.931 21.2853 166.611 20.8433 167.223 20.254L170.045 23.314C169.206 24.266 168.152 25.0027 166.883 25.524C165.613 26.0227 164.151 26.272 162.497 26.272Z" fill="#054C73"/>
</svg>
